<svg id="Capa_1" enable-background="new 0 0 512 512" height="512" viewBox="0 0 512 512" width="512" xmlns="http://www.w3.org/2000/svg" xmlns:xlink="http://www.w3.org/1999/xlink"><linearGradient id="SVGID_1_" gradientUnits="userSpaceOnUse" x1="256" x2="256" y1="512" y2="0"><stop offset="0" stop-color="#5558ff"/><stop offset="1" stop-color="#00c0ff"/></linearGradient><linearGradient id="SVGID_2_" gradientUnits="userSpaceOnUse" x1="256" x2="256" y1="430.054" y2="81.925"><stop offset="0" stop-color="#addcff"/><stop offset=".5028" stop-color="#eaf6ff"/><stop offset="1" stop-color="#eaf6ff"/></linearGradient><g><g><g><circle cx="256" cy="256" fill="url(#SVGID_1_)" r="256"/></g></g><g><g><path d="m422.992 290.453-19.248-12.056c1.112-7.47 2.256-14.549 2.256-22.397 0-7.324-1.025-14.341-2.285-22.368l19.277-12.07c6.211-3.882 8.73-11.689 5.918-18.457l-13.213-31.948c-2.783-6.768-10.107-10.562-17.227-8.892l-22.119 5.112c-8.906-12.114-19.6-22.793-31.729-31.743l5.127-22.061c1.641-7.148-2.109-14.458-8.877-17.256l-31.962-13.227c-6.768-2.842-14.619-.337-18.457 5.918l-12.041 19.263c-3.08-.374-10.622-1.853-22.412-1.822-6.986.016-14.275.573-22.412 1.822l-12.041-19.263c-3.867-6.255-11.719-8.745-18.457-5.918l-31.934 13.228c-6.768 2.798-10.518 10.093-8.877 17.241l5.098 22.075c-12.158 8.95-22.822 19.644-31.729 31.729v.015l-22.119-5.127c-7.09-1.699-14.443 2.124-17.227 8.892l-13.212 31.961c-2.813 6.768-.293 14.561 5.918 18.442l19.248 12.056c-1.112 7.469-2.256 14.548-2.256 22.398 0 7.324 1.025 14.341 2.285 22.368l-19.277 12.07c-6.211 3.882-8.73 11.689-5.918 18.457l13.213 31.948c2.783 6.782 10.195 10.62 17.227 8.892l22.119-5.112c8.906 12.114 19.6 22.793 31.729 31.743l-5.127 22.061c-1.641 7.148 2.109 14.458 8.877 17.256l31.963 13.228c6.832 2.829 14.656.245 18.457-5.918l12.041-19.263c3.045.364 10.613 1.824 22.412 1.798 6.978-.015 14.262-.551 22.412-1.798l12.041 19.263c3.896 6.24 11.719 8.701 18.457 5.918l31.934-13.228c6.768-2.798 10.518-10.093 8.877-17.241l-5.098-22.075c12.158-8.95 22.822-19.644 31.729-31.729v-.015l22.119 5.112c7.061 1.685 14.443-2.109 17.227-8.892l13.213-31.948c2.811-6.767.291-14.56-5.92-18.442zm-166.992 25.547c-33.076 0-60-26.909-60-60s26.924-60 60-60 60 26.909 60 60-26.924 60-60 60z" fill="url(#SVGID_2_)"/></g></g></g></svg>