<?xml version="1.0" encoding="utf-8"?>
<!-- Generator: Adobe Illustrator 23.1.1, SVG Export Plug-In . SVG Version: 6.00 Build 0)  -->
<svg version="1.1" id="Layer_1" xmlns="http://www.w3.org/2000/svg" xmlns:xlink="http://www.w3.org/1999/xlink" x="0px" y="0px"
	 viewBox="0 0 38 38" style="enable-background:new 0 0 38 38;" xml:space="preserve">
<style type="text/css">
	.st0{fill:#FFFFFF;}
</style>
<path class="st0" d="M34.6,4.9L30.7,1c-0.7-0.7-1.6-1-2.5-1H15.4c-2,0-3.6,1.6-3.6,3.6v3.6H5.9c-2,0-3.6,1.6-3.6,3.6v23.8
	c0,2,1.6,3.6,3.6,3.6h16.6c2,0,3.6-1.6,3.6-3.6v-3.6h5.9c2,0,3.6-1.6,3.6-3.6V7.4C35.6,6.5,35.2,5.6,34.6,4.9z M22.1,34.4H6.4
	c-0.2,0-0.4-0.2-0.4-0.4V11.1c0-0.2,0.2-0.4,0.4-0.4h5.5v16.6c0,2,1.6,3.6,3.6,3.6h7.1V34C22.6,34.2,22.4,34.4,22.1,34.4z
	 M31.6,27.3H15.9c-0.2,0-0.4-0.2-0.4-0.4V4c0-0.2,0.2-0.4,0.4-0.4h7.9v6.5c0,1,0.8,1.8,1.8,1.8h6.5v15
	C32.1,27.1,31.9,27.3,31.6,27.3z M32.1,8.3h-4.8V3.6H28c0.1,0,0.2,0,0.3,0.1l3.6,3.6c0.1,0.1,0.1,0.2,0.1,0.3V8.3z"/>
</svg>
